<?xml version="1.0" encoding="utf-8"?>
<!-- Generator: Adobe Illustrator 25.2.0, SVG Export Plug-In . SVG Version: 6.00 Build 0)  -->
<svg version="1.1" id="Layer_1" xmlns="http://www.w3.org/2000/svg" xmlns:xlink="http://www.w3.org/1999/xlink" x="0px" y="0px"
	 viewBox="0 0 1080 981.4" style="enable-background:new 0 0 1080 981.4;" xml:space="preserve">
<style type="text/css">
	.st0{opacity:0.28;fill:#FF961F;}
</style>
<path class="st0" d="M119.2,49.1l3.8-0.5c2.8-0.3,4.9-2.9,4.5-5.8l0,0c-0.3-2.8-2.9-4.9-5.8-4.5L116,39l1.6-6.2
	c0.7-2.8-0.9-5.6-3.7-6.3l0,0c-2.8-0.7-5.6,0.9-6.3,3.7l-1.7,6.4C98.3,31.8,89.4,29,79.8,29C52.9,29,31,50.8,31,77.8
	s21.8,48.7,48.7,48.7s48.7-21.8,48.7-48.7C128.5,67,125,57.1,119.2,49.1z M114.2,80.6c0,4-3.3,7.3-7.3,7.3H52.5
	c-4,0-7.3-3.3-7.3-7.3v-8.5c0-4,3.3-7.3,7.3-7.3h54.4c4,0,7.3,3.3,7.3,7.3C114.2,72.1,114.2,80.6,114.2,80.6z M67.3,76.4
	c0,4.8-2.3,8.7-5.2,8.7s-5.2-3.9-5.2-8.7c0-4.8,2.3-8.7,5.2-8.7C65,67.7,67.3,71.6,67.3,76.4z M102.6,76.4c0,4.8-2.3,8.7-5.2,8.7
	s-5.2-3.9-5.2-8.7c0-4.8,2.3-8.7,5.2-8.7S102.6,71.6,102.6,76.4z"/>
<path class="st0" d="M303.2,214.6l3.8-0.5c2.8-0.3,4.9-2.9,4.5-5.8l0,0c-0.3-2.8-2.9-4.9-5.8-4.5l-5.8,0.7l1.6-6.2
	c0.7-2.8-0.9-5.6-3.7-6.3l0,0c-2.8-0.7-5.6,0.9-6.3,3.7l-1.7,6.4c-7.5-4.8-16.5-7.6-26.1-7.6c-26.9,0-48.7,21.8-48.7,48.7
	s21.8,48.7,48.7,48.7s48.7-21.8,48.7-48.7C312.6,232.5,309.1,222.6,303.2,214.6z M298.2,246.1c0,4-3.3,7.3-7.3,7.3h-54.4
	c-4,0-7.3-3.3-7.3-7.3v-8.5c0-4,3.3-7.3,7.3-7.3H291c4,0,7.3,3.3,7.3,7.3L298.2,246.1L298.2,246.1z M251.4,241.8
	c0,4.8-2.3,8.7-5.2,8.7s-5.2-3.9-5.2-8.7s2.3-8.7,5.2-8.7S251.4,237,251.4,241.8z M286.6,241.8c0,4.8-2.3,8.7-5.2,8.7
	s-5.2-3.9-5.2-8.7s2.3-8.7,5.2-8.7S286.6,237,286.6,241.8z"/>
<path class="st0" d="M119.2,381l3.8-0.5c2.8-0.3,4.9-2.9,4.5-5.8l0,0c-0.3-2.8-2.9-4.9-5.8-4.5L116,371l1.6-6.2
	c0.7-2.8-0.9-5.6-3.7-6.3l0,0c-2.8-0.7-5.6,0.9-6.3,3.7l-1.7,6.4c-7.5-4.8-16.5-7.6-26.1-7.6C52.9,361,31,382.8,31,409.7
	c0,26.9,21.8,48.7,48.7,48.7s48.7-21.8,48.7-48.7C128.5,399,125,389.1,119.2,381z M114.2,412.5c0,4-3.3,7.3-7.3,7.3H52.5
	c-4,0-7.3-3.3-7.3-7.3V404c0-4,3.3-7.3,7.3-7.3h54.4c4,0,7.3,3.3,7.3,7.3C114.2,404,114.2,412.5,114.2,412.5z M67.3,408.3
	c0,4.8-2.3,8.7-5.2,8.7s-5.2-3.9-5.2-8.7s2.3-8.7,5.2-8.7C65,399.6,67.3,403.5,67.3,408.3z M102.6,408.3c0,4.8-2.3,8.7-5.2,8.7
	s-5.2-3.9-5.2-8.7s2.3-8.7,5.2-8.7S102.6,403.5,102.6,408.3z"/>
<path class="st0" d="M79.7,196.8c12,0,23.4,4.7,31.9,13.2s13.2,19.8,13.2,31.9c0,12-4.7,23.4-13.2,31.9S91.8,287,79.7,287
	s-23.4-4.7-31.9-13.2S34.6,254,34.6,241.9c0-12,4.7-23.4,13.2-31.9S67.7,196.8,79.7,196.8 M79.7,193.2C52.8,193.2,31,215,31,241.9
	s21.8,48.7,48.7,48.7s48.7-21.8,48.7-48.7S106.6,193.2,79.7,193.2L79.7,193.2z M119.3,241.9c0-21.8-17.8-39.6-39.6-39.6
	s-39.6,17.8-39.6,39.6c0,9.1,3.2,18.1,9,25.1c0.6,0.8,1.8,0.9,2.6,0.3s0.9-1.8,0.3-2.6c-5.3-6.4-8.1-14.5-8.1-22.8
	c0-19.8,16.1-36,36-36s36,16.1,36,36s-16.1,36-36,36c-2.9,0-5.8-0.4-8.7-1.1c-1-0.2-2,0.4-2.2,1.3c-0.2,1,0.4,2,1.3,2.2
	c3.1,0.8,6.3,1.2,9.5,1.2C101.5,281.5,119.3,263.7,119.3,241.9z M63.6,276.1c0.5-0.9,0.1-2-0.8-2.5c-1.9-1-3.8-2.3-5.5-3.6
	c-0.8-0.6-1.9-0.5-2.6,0.3c-0.6,0.8-0.5,1.9,0.3,2.6c1.9,1.5,4,2.9,6.1,4c0.3,0.1,0.6,0.2,0.9,0.2C62.7,277.1,63.3,276.8,63.6,276.1
	z M86.3,240.9c-0.6-0.4-2.9-1.3-5.1-2.3c-1-0.4-2-0.9-2.9-1.2c-0.1-0.1-0.2-0.1-0.3-0.1c-2.9-1.2-6.1-3.1-6.1-7.7
	c0-3.9,2.7-6.3,6.4-6.9c0.7-0.1,1.4-0.2,2.1-0.2c0.3,0,0.6,0,0.8,0c3.4,0.2,5.4,1.8,6.9,3.3c0.3,0.3,0.7,0.5,1.1,0.5s0.7-0.1,1-0.4
	c0.6-0.6,0.7-1.5,0.1-2.2c-1.4-1.5-4.4-3.9-9.1-4.1v-4c0-0.4-0.2-0.8-0.4-1c-0.3-0.3-0.6-0.4-1-0.4c-0.8,0-1.5,0.7-1.5,1.5v4.1
	c-5.7,0.8-9.7,4.7-9.7,9.9c0,5.9,4.3,8.6,5.9,9.5c1,0.5,2.3,1.1,3.8,1.8c1,0.4,2,0.8,2.9,1.2l0,0c2.4,0.9,7.8,3,7.8,8.3
	c0,4.7-3.4,7.8-7.8,8.5c-0.6,0.1-1.1,0.1-1.7,0.1c-0.4,0-0.8,0-1.2-0.1c-3.9-0.4-6.7-2.8-8.3-5c-0.5-0.7-1.4-0.8-2.1-0.3l0,0
	c-0.7,0.5-0.8,1.4-0.4,2.1c1.5,2.2,4.9,5.7,10.8,6v4.4c0,0.8,0.7,1.5,1.5,1.5s1.4-0.7,1.4-1.5v-4.5c6.8-0.8,11.1-5.6,11.1-11.2
	C92.2,244.2,87.3,241.5,86.3,240.9z"/>
<path class="st0" d="M263.8,31.3c12,0,23.4,4.7,31.9,13.2s13.2,19.8,13.2,31.9s-4.7,23.4-13.2,31.9s-19.8,13.2-31.9,13.2
	c-12,0-23.4-4.7-31.9-13.2s-13.2-19.8-13.2-31.9s4.7-23.4,13.2-31.9C240.5,36,251.8,31.3,263.8,31.3 M263.8,27.7
	c-26.9,0-48.7,21.8-48.7,48.7s21.8,48.7,48.7,48.7s48.7-21.8,48.7-48.7C312.6,49.5,290.7,27.7,263.8,27.7L263.8,27.7z M303.4,76.4
	c0-21.8-17.8-39.6-39.6-39.6s-39.6,17.8-39.6,39.6c0,9.1,3.2,18.1,9,25.1c0.6,0.8,1.8,0.9,2.6,0.3s0.9-1.8,0.3-2.6
	c-5.3-6.4-8.1-14.5-8.1-22.8c0-19.8,16.1-36,36-36c19.8,0,36,16.1,36,36s-16.1,36-36,36c-2.9,0-5.8-0.4-8.7-1.1
	c-1-0.2-2,0.4-2.2,1.3c-0.2,1,0.4,2,1.3,2.2c3.1,0.8,6.3,1.2,9.5,1.2C285.7,116,303.4,98.2,303.4,76.4z M247.7,110.7
	c0.5-0.9,0.1-2-0.8-2.5c-1.9-1-3.8-2.3-5.5-3.6c-0.8-0.6-1.9-0.5-2.6,0.3c-0.6,0.8-0.5,1.9,0.3,2.6c1.9,1.5,4,2.9,6.1,4
	c0.3,0.1,0.6,0.2,0.9,0.2C246.8,111.6,247.4,111.3,247.7,110.7z M270.4,75.5c-0.6-0.4-2.9-1.3-5.1-2.3c-1-0.4-2-0.9-2.9-1.2
	c-0.1-0.1-0.2-0.1-0.3-0.1c-2.9-1.2-6.1-3.1-6.1-7.7c0-3.9,2.7-6.3,6.4-6.9c0.7-0.1,1.4-0.2,2.1-0.2c0.3,0,0.6,0,0.8,0
	c3.4,0.2,5.4,1.8,6.9,3.3c0.3,0.3,0.7,0.5,1.1,0.5s0.7-0.1,1-0.4c0.6-0.6,0.7-1.5,0.1-2.2c-1.4-1.5-4.4-3.9-9.1-4.1v-4
	c0-0.4-0.2-0.8-0.4-1c-0.3-0.3-0.6-0.4-1-0.4c-0.8,0-1.5,0.7-1.5,1.5v4.1c-5.7,0.8-9.7,4.7-9.7,9.9c0,5.9,4.3,8.6,5.9,9.5
	c1,0.5,2.3,1.1,3.8,1.8c1,0.4,2,0.8,2.9,1.2l0,0c2.4,0.9,7.8,3,7.8,8.3c0,4.7-3.4,7.8-7.8,8.5c-0.6,0.1-1.1,0.1-1.7,0.1
	c-0.4,0-0.8,0-1.2-0.1c-3.9-0.4-6.7-2.8-8.3-5c-0.5-0.7-1.4-0.8-2.1-0.3l0,0c-0.7,0.5-0.8,1.4-0.4,2.1c1.5,2.2,4.9,5.7,10.8,6v4.4
	c0,0.8,0.7,1.5,1.5,1.5s1.4-0.7,1.4-1.5v-4.5c6.8-0.8,11.1-5.6,11.1-11.2C276.3,78.7,271.4,76,270.4,75.5z"/>
<path class="st0" d="M303.2,545.4l3.8-0.5c2.8-0.3,4.9-2.9,4.5-5.8l0,0c-0.3-2.8-2.9-4.9-5.8-4.5l-5.8,0.7l1.6-6.2
	c0.7-2.8-0.9-5.6-3.7-6.3l0,0c-2.8-0.7-5.6,0.9-6.3,3.7l-1.7,6.4c-7.5-4.8-16.5-7.6-26.1-7.6c-26.9,0-48.7,21.8-48.7,48.7
	s21.8,48.7,48.7,48.7s48.7-21.8,48.7-48.7C312.6,563.4,309.1,553.5,303.2,545.4z M298.2,576.9c0,4-3.3,7.3-7.3,7.3h-54.4
	c-4,0-7.3-3.3-7.3-7.3v-8.5c0-4,3.3-7.3,7.3-7.3H291c4,0,7.3,3.3,7.3,7.3L298.2,576.9L298.2,576.9z M251.4,572.7
	c0,4.8-2.3,8.7-5.2,8.7s-5.2-3.9-5.2-8.7s2.3-8.7,5.2-8.7S251.4,567.9,251.4,572.7z M286.6,572.7c0,4.8-2.3,8.7-5.2,8.7
	s-5.2-3.9-5.2-8.7s2.3-8.7,5.2-8.7S286.6,567.9,286.6,572.7z"/>
<path class="st0" d="M263.8,362.2c12,0,23.4,4.7,31.9,13.2s13.2,19.8,13.2,31.9s-4.7,23.4-13.2,31.9s-19.8,13.2-31.9,13.2
	c-12,0-23.4-4.7-31.9-13.2s-13.2-19.8-13.2-31.9s4.7-23.4,13.2-31.9C240.5,366.9,251.8,362.2,263.8,362.2 M263.8,358.5
	c-26.9,0-48.7,21.8-48.7,48.7c0,26.9,21.8,48.7,48.7,48.7s48.7-21.8,48.7-48.7C312.6,380.3,290.7,358.5,263.8,358.5L263.8,358.5z
	 M303.4,407.3c0-21.8-17.8-39.6-39.6-39.6s-39.6,17.8-39.6,39.6c0,9.1,3.2,18.1,9,25.1c0.6,0.8,1.8,0.9,2.6,0.3s0.9-1.8,0.3-2.6
	c-5.3-6.4-8.1-14.5-8.1-22.8c0-19.8,16.1-36,36-36c19.8,0,36,16.1,36,36c0,19.8-16.1,36-36,36c-2.9,0-5.8-0.4-8.7-1.1
	c-1-0.2-2,0.4-2.2,1.3c-0.2,1,0.4,2,1.3,2.2c3.1,0.8,6.3,1.2,9.5,1.2C285.7,446.9,303.4,429.1,303.4,407.3z M247.7,441.5
	c0.5-0.9,0.1-2-0.8-2.5c-1.9-1-3.8-2.3-5.5-3.6c-0.8-0.6-1.9-0.5-2.6,0.3c-0.6,0.8-0.5,1.9,0.3,2.6c1.9,1.5,4,2.9,6.1,4
	c0.3,0.1,0.6,0.2,0.9,0.2C246.8,442.5,247.4,442.1,247.7,441.5z M270.4,406.3c-0.6-0.4-2.9-1.3-5.1-2.3c-1-0.4-2-0.9-2.9-1.2
	c-0.1-0.1-0.2-0.1-0.3-0.1c-2.9-1.2-6.1-3.1-6.1-7.7c0-3.9,2.7-6.3,6.4-6.9c0.7-0.1,1.4-0.2,2.1-0.2c0.3,0,0.6,0,0.8,0
	c3.4,0.2,5.4,1.8,6.9,3.3c0.3,0.3,0.7,0.5,1.1,0.5s0.7-0.1,1-0.4c0.6-0.6,0.7-1.5,0.1-2.2c-1.4-1.5-4.4-3.9-9.1-4.1v-4
	c0-0.4-0.2-0.8-0.4-1s-0.6-0.4-1-0.4c-0.8,0-1.5,0.7-1.5,1.5v4.1c-5.7,0.8-9.7,4.7-9.7,9.9c0,5.9,4.3,8.6,5.9,9.5
	c1,0.5,2.3,1.1,3.8,1.8c1,0.4,2,0.8,2.9,1.2l0,0c2.4,0.9,7.8,3,7.8,8.3c0,4.7-3.4,7.8-7.8,8.5c-0.6,0.1-1.1,0.1-1.7,0.1
	c-0.4,0-0.8,0-1.2-0.1c-3.9-0.4-6.7-2.8-8.3-5c-0.5-0.7-1.4-0.8-2.1-0.3l0,0c-0.7,0.5-0.8,1.4-0.4,2.1c1.5,2.2,4.9,5.7,10.8,6v4.4
	c0,0.8,0.7,1.5,1.5,1.5s1.4-0.7,1.4-1.5V427c6.8-0.8,11.1-5.6,11.1-11.2C276.3,409.6,271.4,406.9,270.4,406.3z"/>
<path class="st0" d="M303.2,876.4l3.8-0.5c2.8-0.3,4.9-2.9,4.5-5.8l0,0c-0.3-2.8-2.9-4.9-5.8-4.5l-5.8,0.7l1.6-6.2
	c0.7-2.8-0.9-5.6-3.7-6.3l0,0c-2.8-0.7-5.6,0.9-6.3,3.7l-1.7,6.4c-7.5-4.8-16.5-7.6-26.1-7.6c-26.9,0-48.7,21.8-48.7,48.7
	s21.8,48.7,48.7,48.7s48.7-21.8,48.7-48.7C312.6,894.3,309.1,884.4,303.2,876.4z M298.2,907.9c0,4-3.3,7.3-7.3,7.3h-54.4
	c-4,0-7.3-3.3-7.3-7.3v-8.5c0-4,3.3-7.3,7.3-7.3H291c4,0,7.3,3.3,7.3,7.3L298.2,907.9L298.2,907.9z M251.4,903.7
	c0,4.8-2.3,8.7-5.2,8.7s-5.2-3.9-5.2-8.7s2.3-8.7,5.2-8.7S251.4,898.9,251.4,903.7z M286.6,903.7c0,4.8-2.3,8.7-5.2,8.7
	s-5.2-3.9-5.2-8.7s2.3-8.7,5.2-8.7S286.6,898.9,286.6,903.7z"/>
<path class="st0" d="M263.8,693.1c12,0,23.4,4.7,31.9,13.2s13.2,19.8,13.2,31.9s-4.7,23.4-13.2,31.9s-19.8,13.2-31.9,13.2
	c-12,0-23.4-4.7-31.9-13.2s-13.2-19.8-13.2-31.9s4.7-23.4,13.2-31.9C240.5,697.8,251.8,693.1,263.8,693.1 M263.8,689.5
	c-26.9,0-48.7,21.8-48.7,48.7s21.8,48.7,48.7,48.7s48.7-21.8,48.7-48.7S290.7,689.5,263.8,689.5L263.8,689.5z M303.4,738.2
	c0-21.8-17.8-39.6-39.6-39.6s-39.6,17.8-39.6,39.6c0,9.1,3.2,18.1,9,25.1c0.6,0.8,1.8,0.9,2.6,0.3c0.8-0.6,0.9-1.8,0.3-2.6
	c-5.3-6.4-8.1-14.5-8.1-22.8c0-19.8,16.1-36,36-36c19.8,0,36,16.1,36,36s-16.1,36-36,36c-2.9,0-5.8-0.4-8.7-1.1
	c-1-0.2-2,0.4-2.2,1.3c-0.2,1,0.4,2,1.3,2.2c3.1,0.8,6.3,1.2,9.5,1.2C285.7,777.8,303.4,760.1,303.4,738.2z M247.7,772.5
	c0.5-0.9,0.1-2-0.8-2.5c-1.9-1-3.8-2.3-5.5-3.6c-0.8-0.6-1.9-0.5-2.6,0.3c-0.6,0.8-0.5,1.9,0.3,2.6c1.9,1.5,4,2.9,6.1,4
	c0.3,0.1,0.6,0.2,0.9,0.2C246.8,773.4,247.4,773.1,247.7,772.5z M270.4,737.3c-0.6-0.4-2.9-1.3-5.1-2.3c-1-0.4-2-0.9-2.9-1.2
	c-0.1-0.1-0.2-0.1-0.3-0.1c-2.9-1.2-6.1-3.1-6.1-7.7c0-3.9,2.7-6.3,6.4-6.9c0.7-0.1,1.4-0.2,2.1-0.2c0.3,0,0.6,0,0.8,0
	c3.4,0.2,5.4,1.8,6.9,3.3c0.3,0.3,0.7,0.5,1.1,0.5s0.7-0.1,1-0.4c0.6-0.6,0.7-1.5,0.1-2.2c-1.4-1.5-4.4-3.9-9.1-4.1v-4
	c0-0.4-0.2-0.8-0.4-1c-0.3-0.3-0.6-0.4-1-0.4c-0.8,0-1.5,0.7-1.5,1.5v4.1c-5.7,0.8-9.7,4.7-9.7,9.9c0,5.9,4.3,8.6,5.9,9.5
	c1,0.5,2.3,1.1,3.8,1.8c1,0.4,2,0.8,2.9,1.2l0,0c2.4,0.9,7.8,3,7.8,8.3c0,4.7-3.4,7.8-7.8,8.5c-0.6,0.1-1.1,0.1-1.7,0.1
	c-0.4,0-0.8,0-1.2-0.1c-3.9-0.4-6.7-2.8-8.3-5c-0.5-0.7-1.4-0.8-2.1-0.3l0,0c-0.7,0.5-0.8,1.4-0.4,2.1c1.5,2.2,4.9,5.7,10.8,6v4.4
	c0,0.8,0.7,1.5,1.5,1.5s1.4-0.7,1.4-1.5V758c6.8-0.8,11.1-5.6,11.1-11.2C276.3,740.5,271.4,737.8,270.4,737.3z"/>
<path class="st0" d="M79.7,529.2c12,0,23.4,4.7,31.9,13.2s13.2,19.8,13.2,31.9s-4.7,23.4-13.2,31.9s-19.8,13.2-31.9,13.2
	s-23.4-4.7-31.9-13.2s-13.2-19.8-13.2-31.9s4.7-23.4,13.2-31.9S67.7,529.2,79.7,529.2 M79.7,525.6c-26.9,0-48.7,21.8-48.7,48.7
	S52.8,623,79.7,623s48.7-21.8,48.7-48.7C128.4,547.4,106.6,525.6,79.7,525.6L79.7,525.6z M119.3,574.3c0-21.8-17.8-39.6-39.6-39.6
	s-39.6,17.8-39.6,39.6c0,9.1,3.2,18.1,9,25.1c0.6,0.8,1.8,0.9,2.6,0.3c0.8-0.6,0.9-1.8,0.3-2.6c-5.3-6.4-8.1-14.5-8.1-22.8
	c0-19.8,16.1-36,36-36s36,16.1,36,36s-16.1,36-36,36c-2.9,0-5.8-0.4-8.7-1.1c-1-0.2-2,0.4-2.2,1.3c-0.2,1,0.4,2,1.3,2.2
	c3.1,0.8,6.3,1.2,9.5,1.2C101.5,613.9,119.3,596.2,119.3,574.3z M63.6,608.6c0.5-0.9,0.1-2-0.8-2.5c-1.9-1-3.8-2.3-5.5-3.6
	c-0.8-0.6-1.9-0.5-2.6,0.3c-0.6,0.8-0.5,1.9,0.3,2.6c1.9,1.5,4,2.9,6.1,4c0.3,0.1,0.6,0.2,0.9,0.2C62.7,609.6,63.3,609.2,63.6,608.6
	z M86.3,573.4c-0.6-0.4-2.9-1.3-5.1-2.3c-1-0.4-2-0.9-2.9-1.2c-0.1-0.1-0.2-0.1-0.3-0.1c-2.9-1.2-6.1-3.1-6.1-7.7
	c0-3.9,2.7-6.3,6.4-6.9c0.7-0.1,1.4-0.2,2.1-0.2c0.3,0,0.6,0,0.8,0c3.4,0.2,5.4,1.8,6.9,3.3c0.3,0.3,0.7,0.5,1.1,0.5s0.7-0.1,1-0.4
	c0.6-0.6,0.7-1.5,0.1-2.2c-1.4-1.5-4.4-3.9-9.1-4.1v-4c0-0.4-0.2-0.8-0.4-1c-0.3-0.3-0.6-0.4-1-0.4c-0.8,0-1.5,0.7-1.5,1.5v4.1
	c-5.7,0.8-9.7,4.7-9.7,9.9c0,5.9,4.3,8.6,5.9,9.5c1,0.5,2.3,1.1,3.8,1.8c1,0.4,2,0.8,2.9,1.2l0,0c2.4,0.9,7.8,3,7.8,8.3
	c0,4.7-3.4,7.8-7.8,8.5c-0.6,0.1-1.1,0.1-1.7,0.1c-0.4,0-0.8,0-1.2-0.1c-3.9-0.4-6.7-2.8-8.3-5c-0.5-0.7-1.4-0.8-2.1-0.3l0,0
	c-0.7,0.5-0.8,1.4-0.4,2.1c1.5,2.2,4.9,5.7,10.8,6v4.4c0,0.8,0.7,1.5,1.5,1.5s1.4-0.7,1.4-1.5v-4.5c6.8-0.8,11.1-5.6,11.1-11.2
	C92.2,576.6,87.3,573.9,86.3,573.4z"/>
<path class="st0" d="M119.2,713l3.8-0.5c2.8-0.3,4.9-2.9,4.5-5.8l0,0c-0.3-2.8-2.9-4.9-5.8-4.5l-5.8,0.7l1.6-6.2
	c0.7-2.8-0.9-5.6-3.7-6.3l0,0c-2.8-0.7-5.6,0.9-6.3,3.7l-1.7,6.4c-7.5-4.8-16.5-7.6-26.1-7.6c-26.9,0-48.7,21.8-48.7,48.7
	s21.8,48.7,48.7,48.7s48.7-21.8,48.7-48.7C128.5,730.9,125,721,119.2,713z M114.2,744.5c0,4-3.3,7.3-7.3,7.3H52.5
	c-4,0-7.3-3.3-7.3-7.3V736c0-4,3.3-7.3,7.3-7.3h54.4c4,0,7.3,3.3,7.3,7.3C114.2,736,114.2,744.5,114.2,744.5z M67.3,740.3
	c0,4.8-2.3,8.7-5.2,8.7s-5.2-3.9-5.2-8.7s2.3-8.7,5.2-8.7C65,731.6,67.3,735.5,67.3,740.3z M102.6,740.3c0,4.8-2.3,8.7-5.2,8.7
	s-5.2-3.9-5.2-8.7s2.3-8.7,5.2-8.7S102.6,735.5,102.6,740.3z"/>
<path class="st0" d="M79.7,861.2c12,0,23.4,4.7,31.9,13.2s13.2,19.8,13.2,31.9s-4.7,23.4-13.2,31.9s-19.8,13.2-31.9,13.2
	s-23.4-4.7-31.9-13.2s-13.2-19.8-13.2-31.9s4.7-23.4,13.2-31.9S67.7,861.2,79.7,861.2 M79.7,857.6c-26.9,0-48.7,21.8-48.7,48.7
	S52.8,955,79.7,955s48.7-21.8,48.7-48.7C128.4,879.4,106.6,857.6,79.7,857.6L79.7,857.6z M119.3,906.3c0-21.8-17.8-39.6-39.6-39.6
	s-39.6,17.8-39.6,39.6c0,9.1,3.2,18.1,9,25.1c0.6,0.8,1.8,0.9,2.6,0.3c0.8-0.6,0.9-1.8,0.3-2.6c-5.3-6.4-8.1-14.5-8.1-22.8
	c0-19.8,16.1-36,36-36s36,16.1,36,36s-16.1,36-36,36c-2.9,0-5.8-0.4-8.7-1.1c-1-0.2-2,0.4-2.2,1.3c-0.2,1,0.4,2,1.3,2.2
	c3.1,0.8,6.3,1.2,9.5,1.2C101.5,945.9,119.3,928.1,119.3,906.3z M63.6,940.5c0.5-0.9,0.1-2-0.8-2.5c-1.9-1-3.8-2.3-5.5-3.6
	c-0.8-0.6-1.9-0.5-2.6,0.3c-0.6,0.8-0.5,1.9,0.3,2.6c1.9,1.5,4,2.9,6.1,4c0.3,0.1,0.6,0.2,0.9,0.2C62.7,941.5,63.3,941.2,63.6,940.5
	z M86.3,905.4c-0.6-0.4-2.9-1.3-5.1-2.3c-1-0.4-2-0.9-2.9-1.2c-0.1-0.1-0.2-0.1-0.3-0.1c-2.9-1.2-6.1-3.1-6.1-7.7
	c0-3.9,2.7-6.3,6.4-6.9c0.7-0.1,1.4-0.2,2.1-0.2c0.3,0,0.6,0,0.8,0c3.4,0.2,5.4,1.8,6.9,3.3c0.3,0.3,0.7,0.5,1.1,0.5s0.7-0.1,1-0.4
	c0.6-0.6,0.7-1.5,0.1-2.2c-1.4-1.5-4.4-3.9-9.1-4.1v-4c0-0.4-0.2-0.8-0.4-1c-0.3-0.3-0.6-0.4-1-0.4c-0.8,0-1.5,0.7-1.5,1.5v4.1
	c-5.7,0.8-9.7,4.7-9.7,9.9c0,5.9,4.3,8.6,5.9,9.5c1,0.5,2.3,1.1,3.8,1.8c1,0.4,2,0.8,2.9,1.2l0,0c2.4,0.9,7.8,3,7.8,8.3
	c0,4.7-3.4,7.8-7.8,8.5c-0.6,0.1-1.1,0.1-1.7,0.1c-0.4,0-0.8,0-1.2-0.1c-3.9-0.4-6.7-2.8-8.3-5c-0.5-0.7-1.4-0.8-2.1-0.3l0,0
	c-0.7,0.5-0.8,1.4-0.4,2.1c1.5,2.2,4.9,5.7,10.8,6v4.4c0,0.8,0.7,1.5,1.5,1.5s1.4-0.7,1.4-1.5V926c6.8-0.8,11.1-5.6,11.1-11.2
	C92.2,908.6,87.3,905.9,86.3,905.4z"/>
<path class="st0" d="M487.4,49.1l3.8-0.5c2.8-0.3,4.9-2.9,4.5-5.8l0,0c-0.3-2.8-2.9-4.9-5.8-4.5l-5.8,0.7l1.6-6.2
	c0.7-2.8-0.9-5.6-3.7-6.3l0,0c-2.8-0.7-5.6,0.9-6.3,3.7l-1.7,6.4c-7.5-4.8-16.5-7.6-26.1-7.6c-26.9,0-48.7,21.8-48.7,48.7
	s21.8,48.7,48.7,48.7s48.7-21.8,48.7-48.7C496.7,67,493.3,57.1,487.4,49.1z M482.4,80.6c0,4-3.3,7.3-7.3,7.3h-54.4
	c-4,0-7.3-3.3-7.3-7.3v-8.5c0-4,3.3-7.3,7.3-7.3h54.4c4,0,7.3,3.3,7.3,7.3V80.6z M435.5,76.4c0,4.8-2.3,8.7-5.2,8.7
	c-2.9,0-5.2-3.9-5.2-8.7c0-4.8,2.3-8.7,5.2-8.7C433.2,67.7,435.5,71.6,435.5,76.4z M470.8,76.4c0,4.8-2.3,8.7-5.2,8.7
	c-2.9,0-5.2-3.9-5.2-8.7c0-4.8,2.3-8.7,5.2-8.7C468.5,67.7,470.8,71.6,470.8,76.4z"/>
<path class="st0" d="M671.5,214.6l3.8-0.5c2.8-0.3,4.9-2.9,4.5-5.8l0,0c-0.3-2.8-2.9-4.9-5.8-4.5l-5.8,0.7l1.6-6.2
	c0.7-2.8-0.9-5.6-3.7-6.3l0,0c-2.8-0.7-5.6,0.9-6.3,3.7l-1.7,6.4c-7.5-4.8-16.5-7.6-26.1-7.6c-26.9,0-48.7,21.8-48.7,48.7
	s21.8,48.7,48.7,48.7s48.7-21.8,48.7-48.7C680.8,232.5,677.3,222.6,671.5,214.6z M666.5,246.1c0,4-3.3,7.3-7.3,7.3h-54.4
	c-4,0-7.3-3.3-7.3-7.3v-8.5c0-4,3.3-7.3,7.3-7.3h54.4c4,0,7.3,3.3,7.3,7.3V246.1z M619.6,241.8c0,4.8-2.3,8.7-5.2,8.7
	s-5.2-3.9-5.2-8.7s2.3-8.7,5.2-8.7C617.2,233.1,619.6,237,619.6,241.8z M654.9,241.8c0,4.8-2.3,8.7-5.2,8.7s-5.2-3.9-5.2-8.7
	s2.3-8.7,5.2-8.7C652.5,233.1,654.9,237,654.9,241.8z"/>
<path class="st0" d="M487.4,381l3.8-0.5c2.8-0.3,4.9-2.9,4.5-5.8l0,0c-0.3-2.8-2.9-4.9-5.8-4.5l-5.8,0.7l1.6-6.2
	c0.7-2.8-0.9-5.6-3.7-6.3l0,0c-2.8-0.7-5.6,0.9-6.3,3.7l-1.7,6.4c-7.5-4.8-16.5-7.6-26.1-7.6c-26.9,0-48.7,21.8-48.7,48.7
	c0,26.9,21.8,48.7,48.7,48.7s48.7-21.8,48.7-48.7C496.7,399,493.3,389.1,487.4,381z M482.4,412.5c0,4-3.3,7.3-7.3,7.3h-54.4
	c-4,0-7.3-3.3-7.3-7.3V404c0-4,3.3-7.3,7.3-7.3h54.4c4,0,7.3,3.3,7.3,7.3V412.5z M435.5,408.3c0,4.8-2.3,8.7-5.2,8.7
	c-2.9,0-5.2-3.9-5.2-8.7s2.3-8.7,5.2-8.7C433.2,399.6,435.5,403.5,435.5,408.3z M470.8,408.3c0,4.8-2.3,8.7-5.2,8.7
	c-2.9,0-5.2-3.9-5.2-8.7s2.3-8.7,5.2-8.7C468.5,399.6,470.8,403.5,470.8,408.3z"/>
<path class="st0" d="M447.9,196.8c12,0,23.4,4.7,31.9,13.2s13.2,19.8,13.2,31.9c0,12-4.7,23.4-13.2,31.9S460,287,447.9,287
	s-23.4-4.7-31.9-13.2s-13.2-19.8-13.2-31.9c0-12,4.7-23.4,13.2-31.9C424.6,201.5,435.9,196.8,447.9,196.8 M447.9,193.2
	c-26.9,0-48.7,21.8-48.7,48.7s21.8,48.7,48.7,48.7c26.9,0,48.7-21.8,48.7-48.7S474.9,193.2,447.9,193.2L447.9,193.2z M487.5,241.9
	c0-21.8-17.8-39.6-39.6-39.6c-21.8,0-39.6,17.8-39.6,39.6c0,9.1,3.2,18.1,9,25.1c0.6,0.8,1.8,0.9,2.6,0.3c0.8-0.6,0.9-1.8,0.3-2.6
	c-5.3-6.4-8.1-14.5-8.1-22.8c0-19.8,16.1-36,36-36c19.8,0,36,16.1,36,36s-16.1,36-36,36c-2.9,0-5.8-0.4-8.7-1.1
	c-1-0.2-2,0.4-2.2,1.3c-0.2,1,0.4,2,1.3,2.2c3.1,0.8,6.3,1.2,9.5,1.2C469.8,281.5,487.5,263.7,487.5,241.9z M431.9,276.1
	c0.5-0.9,0.1-2-0.8-2.5c-1.9-1-3.8-2.3-5.5-3.6c-0.8-0.6-1.9-0.5-2.6,0.3c-0.6,0.8-0.5,1.9,0.3,2.6c1.9,1.5,4,2.9,6.1,4
	c0.3,0.1,0.6,0.2,0.9,0.2C430.9,277.1,431.5,276.8,431.9,276.1z M454.5,240.9c-0.6-0.4-2.9-1.3-5.1-2.3c-1-0.4-2-0.9-2.9-1.2
	c-0.1-0.1-0.2-0.1-0.3-0.1c-2.9-1.2-6.1-3.1-6.1-7.7c0-3.9,2.7-6.3,6.4-6.9c0.7-0.1,1.4-0.2,2.1-0.2c0.3,0,0.6,0,0.8,0
	c3.4,0.2,5.4,1.8,6.9,3.3c0.3,0.3,0.7,0.5,1.1,0.5s0.7-0.1,1-0.4c0.6-0.6,0.7-1.5,0.1-2.2c-1.4-1.5-4.4-3.9-9.1-4.1v-4
	c0-0.4-0.2-0.8-0.4-1c-0.3-0.3-0.6-0.4-1-0.4c-0.8,0-1.5,0.7-1.5,1.5v4.1c-5.7,0.8-9.7,4.7-9.7,9.9c0,5.9,4.3,8.6,5.9,9.5
	c1,0.5,2.3,1.1,3.8,1.8c1,0.4,2,0.8,2.9,1.2l0,0c2.4,0.9,7.8,3,7.8,8.3c0,4.7-3.4,7.8-7.8,8.5c-0.6,0.1-1.1,0.1-1.7,0.1
	c-0.4,0-0.8,0-1.2-0.1c-3.9-0.4-6.7-2.8-8.3-5c-0.5-0.7-1.4-0.8-2.1-0.3l0,0c-0.7,0.5-0.8,1.4-0.4,2.1c1.5,2.2,4.9,5.7,10.8,6v4.4
	c0,0.8,0.7,1.5,1.5,1.5s1.4-0.7,1.4-1.5v-4.5c6.8-0.8,11.1-5.6,11.1-11.2C460.5,244.2,455.5,241.5,454.5,240.9z"/>
<path class="st0" d="M632.1,31.3c12,0,23.4,4.7,31.9,13.2s13.2,19.8,13.2,31.9s-4.7,23.4-13.2,31.9s-19.8,13.2-31.9,13.2
	s-23.4-4.7-31.9-13.2S587,88.5,587,76.4s4.7-23.4,13.2-31.9C608.7,36,620,31.3,632.1,31.3 M632.1,27.7c-26.9,0-48.7,21.8-48.7,48.7
	s21.8,48.7,48.7,48.7s48.7-21.8,48.7-48.7S659,27.7,632.1,27.7L632.1,27.7z M671.7,76.4c0-21.8-17.8-39.6-39.6-39.6
	s-39.6,17.8-39.6,39.6c0,9.1,3.2,18.1,9,25.1c0.6,0.8,1.8,0.9,2.6,0.3s0.9-1.8,0.3-2.6c-5.3-6.4-8.1-14.5-8.1-22.8
	c0-19.8,16.1-36,36-36s36,16.1,36,36s-16.1,36-36,36c-2.9,0-5.8-0.4-8.7-1.1c-1-0.2-2,0.4-2.2,1.3c-0.2,1,0.4,2,1.3,2.2
	c3.1,0.8,6.3,1.2,9.5,1.2C653.9,116,671.7,98.2,671.7,76.4z M616,110.7c0.5-0.9,0.1-2-0.8-2.5c-1.9-1-3.8-2.3-5.5-3.6
	c-0.8-0.6-1.9-0.5-2.6,0.3c-0.6,0.8-0.5,1.9,0.3,2.6c1.9,1.5,4,2.9,6.1,4c0.3,0.1,0.6,0.2,0.9,0.2C615,111.6,615.6,111.3,616,110.7z
	 M638.7,75.5c-0.6-0.4-2.9-1.3-5.1-2.3c-1-0.4-2-0.9-2.9-1.2c-0.1-0.1-0.2-0.1-0.3-0.1c-2.9-1.2-6.1-3.1-6.1-7.7
	c0-3.9,2.7-6.3,6.4-6.9c0.7-0.1,1.4-0.2,2.1-0.2c0.3,0,0.6,0,0.8,0c3.4,0.2,5.4,1.8,6.9,3.3c0.3,0.3,0.7,0.5,1.1,0.5
	c0.4,0,0.7-0.1,1-0.4c0.6-0.6,0.7-1.5,0.1-2.2c-1.4-1.5-4.4-3.9-9.1-4.1v-4c0-0.4-0.2-0.8-0.4-1c-0.3-0.3-0.6-0.4-1-0.4
	c-0.8,0-1.5,0.7-1.5,1.5v4.1c-5.7,0.8-9.7,4.7-9.7,9.9c0,5.9,4.3,8.6,5.9,9.5c1,0.5,2.3,1.1,3.8,1.8c1,0.4,2,0.8,2.9,1.2l0,0
	c2.4,0.9,7.8,3,7.8,8.3c0,4.7-3.4,7.8-7.8,8.5c-0.6,0.1-1.1,0.1-1.7,0.1c-0.4,0-0.8,0-1.2-0.1c-3.9-0.4-6.7-2.8-8.3-5
	c-0.5-0.7-1.4-0.8-2.1-0.3l0,0c-0.7,0.5-0.8,1.4-0.4,2.1c1.5,2.2,4.9,5.7,10.8,6v4.4c0,0.8,0.7,1.5,1.5,1.5s1.4-0.7,1.4-1.5v-4.5
	c6.8-0.8,11.1-5.6,11.1-11.2C644.6,78.7,639.6,76,638.7,75.5z"/>
<path class="st0" d="M671.5,545.4l3.8-0.5c2.8-0.3,4.9-2.9,4.5-5.8l0,0c-0.3-2.8-2.9-4.9-5.8-4.5l-5.8,0.7l1.6-6.2
	c0.7-2.8-0.9-5.6-3.7-6.3l0,0c-2.8-0.7-5.6,0.9-6.3,3.7l-1.7,6.4c-7.5-4.8-16.5-7.6-26.1-7.6c-26.9,0-48.7,21.8-48.7,48.7
	s21.8,48.7,48.7,48.7s48.7-21.8,48.7-48.7C680.8,563.4,677.3,553.5,671.5,545.4z M666.5,576.9c0,4-3.3,7.3-7.3,7.3h-54.4
	c-4,0-7.3-3.3-7.3-7.3v-8.5c0-4,3.3-7.3,7.3-7.3h54.4c4,0,7.3,3.3,7.3,7.3V576.9z M619.6,572.7c0,4.8-2.3,8.7-5.2,8.7
	s-5.2-3.9-5.2-8.7s2.3-8.7,5.2-8.7C617.2,564,619.6,567.9,619.6,572.7z M654.9,572.7c0,4.8-2.3,8.7-5.2,8.7s-5.2-3.9-5.2-8.7
	s2.3-8.7,5.2-8.7C652.5,564,654.9,567.9,654.9,572.7z"/>
<path class="st0" d="M632.1,362.2c12,0,23.4,4.7,31.9,13.2s13.2,19.8,13.2,31.9s-4.7,23.4-13.2,31.9s-19.8,13.2-31.9,13.2
	s-23.4-4.7-31.9-13.2S587,419.4,587,407.3s4.7-23.4,13.2-31.9C608.7,366.9,620,362.2,632.1,362.2 M632.1,358.5
	c-26.9,0-48.7,21.8-48.7,48.7c0,26.9,21.8,48.7,48.7,48.7s48.7-21.8,48.7-48.7S659,358.5,632.1,358.5L632.1,358.5z M671.7,407.3
	c0-21.8-17.8-39.6-39.6-39.6s-39.6,17.8-39.6,39.6c0,9.1,3.2,18.1,9,25.1c0.6,0.8,1.8,0.9,2.6,0.3s0.9-1.8,0.3-2.6
	c-5.3-6.4-8.1-14.5-8.1-22.8c0-19.8,16.1-36,36-36s36,16.1,36,36c0,19.8-16.1,36-36,36c-2.9,0-5.8-0.4-8.7-1.1c-1-0.2-2,0.4-2.2,1.3
	c-0.2,1,0.4,2,1.3,2.2c3.1,0.8,6.3,1.2,9.5,1.2C653.9,446.9,671.7,429.1,671.7,407.3z M616,441.5c0.5-0.9,0.1-2-0.8-2.5
	c-1.9-1-3.8-2.3-5.5-3.6c-0.8-0.6-1.9-0.5-2.6,0.3c-0.6,0.8-0.5,1.9,0.3,2.6c1.9,1.5,4,2.9,6.1,4c0.3,0.1,0.6,0.2,0.9,0.2
	C615,442.5,615.6,442.1,616,441.5z M638.7,406.3c-0.6-0.4-2.9-1.3-5.1-2.3c-1-0.4-2-0.9-2.9-1.2c-0.1-0.1-0.2-0.1-0.3-0.1
	c-2.9-1.2-6.1-3.1-6.1-7.7c0-3.9,2.7-6.3,6.4-6.9c0.7-0.1,1.4-0.2,2.1-0.2c0.3,0,0.6,0,0.8,0c3.4,0.2,5.4,1.8,6.9,3.3
	c0.3,0.3,0.7,0.5,1.1,0.5c0.4,0,0.7-0.1,1-0.4c0.6-0.6,0.7-1.5,0.1-2.2c-1.4-1.5-4.4-3.9-9.1-4.1v-4c0-0.4-0.2-0.8-0.4-1
	c-0.3-0.3-0.6-0.4-1-0.4c-0.8,0-1.5,0.7-1.5,1.5v4.1c-5.7,0.8-9.7,4.7-9.7,9.9c0,5.9,4.3,8.6,5.9,9.5c1,0.5,2.3,1.1,3.8,1.8
	c1,0.4,2,0.8,2.9,1.2l0,0c2.4,0.9,7.8,3,7.8,8.3c0,4.7-3.4,7.8-7.8,8.5c-0.6,0.1-1.1,0.1-1.7,0.1c-0.4,0-0.8,0-1.2-0.1
	c-3.9-0.4-6.7-2.8-8.3-5c-0.5-0.7-1.4-0.8-2.1-0.3l0,0c-0.7,0.5-0.8,1.4-0.4,2.1c1.5,2.2,4.9,5.7,10.8,6v4.4c0,0.8,0.7,1.5,1.5,1.5
	s1.4-0.7,1.4-1.5V427c6.8-0.8,11.1-5.6,11.1-11.2C644.6,409.6,639.6,406.9,638.7,406.3z"/>
<path class="st0" d="M671.5,876.4l3.8-0.5c2.8-0.3,4.9-2.9,4.5-5.8l0,0c-0.3-2.8-2.9-4.9-5.8-4.5l-5.8,0.7l1.6-6.2
	c0.7-2.8-0.9-5.6-3.7-6.3l0,0c-2.8-0.7-5.6,0.9-6.3,3.7l-1.7,6.4c-7.5-4.8-16.5-7.6-26.1-7.6c-26.9,0-48.7,21.8-48.7,48.7
	s21.8,48.7,48.7,48.7s48.7-21.8,48.7-48.7C680.8,894.3,677.3,884.4,671.5,876.4z M666.5,907.9c0,4-3.3,7.3-7.3,7.3h-54.4
	c-4,0-7.3-3.3-7.3-7.3v-8.5c0-4,3.3-7.3,7.3-7.3h54.4c4,0,7.3,3.3,7.3,7.3V907.9z M619.6,903.7c0,4.8-2.3,8.7-5.2,8.7
	s-5.2-3.9-5.2-8.7s2.3-8.7,5.2-8.7C617.2,895,619.6,898.9,619.6,903.7z M654.9,903.7c0,4.8-2.3,8.7-5.2,8.7s-5.2-3.9-5.2-8.7
	s2.3-8.7,5.2-8.7C652.5,895,654.9,898.9,654.9,903.7z"/>
<path class="st0" d="M632.1,693.1c12,0,23.4,4.7,31.9,13.2s13.2,19.8,13.2,31.9s-4.7,23.4-13.2,31.9s-19.8,13.2-31.9,13.2
	s-23.4-4.7-31.9-13.2S587,750.3,587,738.2s4.7-23.4,13.2-31.9C608.7,697.8,620,693.1,632.1,693.1 M632.1,689.5
	c-26.9,0-48.7,21.8-48.7,48.7s21.8,48.7,48.7,48.7s48.7-21.8,48.7-48.7S659,689.5,632.1,689.5L632.1,689.5z M671.7,738.2
	c0-21.8-17.8-39.6-39.6-39.6s-39.6,17.8-39.6,39.6c0,9.1,3.2,18.1,9,25.1c0.6,0.8,1.8,0.9,2.6,0.3c0.8-0.6,0.9-1.8,0.3-2.6
	c-5.3-6.4-8.1-14.5-8.1-22.8c0-19.8,16.1-36,36-36s36,16.1,36,36s-16.1,36-36,36c-2.9,0-5.8-0.4-8.7-1.1c-1-0.2-2,0.4-2.2,1.3
	c-0.2,1,0.4,2,1.3,2.2c3.1,0.8,6.3,1.2,9.5,1.2C653.9,777.8,671.7,760.1,671.7,738.2z M616,772.5c0.5-0.9,0.1-2-0.8-2.5
	c-1.9-1-3.8-2.3-5.5-3.6c-0.8-0.6-1.9-0.5-2.6,0.3c-0.6,0.8-0.5,1.9,0.3,2.6c1.9,1.5,4,2.9,6.1,4c0.3,0.1,0.6,0.2,0.9,0.2
	C615,773.4,615.6,773.1,616,772.5z M638.7,737.3c-0.6-0.4-2.9-1.3-5.1-2.3c-1-0.4-2-0.9-2.9-1.2c-0.1-0.1-0.2-0.1-0.3-0.1
	c-2.9-1.2-6.1-3.1-6.1-7.7c0-3.9,2.7-6.3,6.4-6.9c0.7-0.1,1.4-0.2,2.1-0.2c0.3,0,0.6,0,0.8,0c3.4,0.2,5.4,1.8,6.9,3.3
	c0.3,0.3,0.7,0.5,1.1,0.5c0.4,0,0.7-0.1,1-0.4c0.6-0.6,0.7-1.5,0.1-2.2c-1.4-1.5-4.4-3.9-9.1-4.1v-4c0-0.4-0.2-0.8-0.4-1
	c-0.3-0.3-0.6-0.4-1-0.4c-0.8,0-1.5,0.7-1.5,1.5v4.1c-5.7,0.8-9.7,4.7-9.7,9.9c0,5.9,4.3,8.6,5.9,9.5c1,0.5,2.3,1.1,3.8,1.8
	c1,0.4,2,0.8,2.9,1.2l0,0c2.4,0.9,7.8,3,7.8,8.3c0,4.7-3.4,7.8-7.8,8.5c-0.6,0.1-1.1,0.1-1.7,0.1c-0.4,0-0.8,0-1.2-0.1
	c-3.9-0.4-6.7-2.8-8.3-5c-0.5-0.7-1.4-0.8-2.1-0.3l0,0c-0.7,0.5-0.8,1.4-0.4,2.1c1.5,2.2,4.9,5.7,10.8,6v4.4c0,0.8,0.7,1.5,1.5,1.5
	s1.4-0.7,1.4-1.5V758c6.8-0.8,11.1-5.6,11.1-11.2C644.6,740.5,639.6,737.8,638.7,737.3z"/>
<path class="st0" d="M447.9,529.2c12,0,23.4,4.7,31.9,13.2s13.2,19.8,13.2,31.9s-4.7,23.4-13.2,31.9s-19.8,13.2-31.9,13.2
	s-23.4-4.7-31.9-13.2s-13.2-19.8-13.2-31.9s4.7-23.4,13.2-31.9C424.6,533.9,435.9,529.2,447.9,529.2 M447.9,525.6
	c-26.9,0-48.7,21.8-48.7,48.7S421,623,447.9,623c26.9,0,48.7-21.8,48.7-48.7C496.7,547.4,474.9,525.6,447.9,525.6L447.9,525.6z
	 M487.5,574.3c0-21.8-17.8-39.6-39.6-39.6c-21.8,0-39.6,17.8-39.6,39.6c0,9.1,3.2,18.1,9,25.1c0.6,0.8,1.8,0.9,2.6,0.3
	c0.8-0.6,0.9-1.8,0.3-2.6c-5.3-6.4-8.1-14.5-8.1-22.8c0-19.8,16.1-36,36-36c19.8,0,36,16.1,36,36s-16.1,36-36,36
	c-2.9,0-5.8-0.4-8.7-1.1c-1-0.2-2,0.4-2.2,1.3c-0.2,1,0.4,2,1.3,2.2c3.1,0.8,6.3,1.2,9.5,1.2C469.8,613.9,487.5,596.2,487.5,574.3z
	 M431.9,608.6c0.5-0.9,0.1-2-0.8-2.5c-1.9-1-3.8-2.3-5.5-3.6c-0.8-0.6-1.9-0.5-2.6,0.3c-0.6,0.8-0.5,1.9,0.3,2.6
	c1.9,1.5,4,2.9,6.1,4c0.3,0.1,0.6,0.2,0.9,0.2C430.9,609.6,431.5,609.2,431.9,608.6z M454.5,573.4c-0.6-0.4-2.9-1.3-5.1-2.3
	c-1-0.4-2-0.9-2.9-1.2c-0.1-0.1-0.2-0.1-0.3-0.1c-2.9-1.2-6.1-3.1-6.1-7.7c0-3.9,2.7-6.3,6.4-6.9c0.7-0.1,1.4-0.2,2.1-0.2
	c0.3,0,0.6,0,0.8,0c3.4,0.2,5.4,1.8,6.9,3.3c0.3,0.3,0.7,0.5,1.1,0.5s0.7-0.1,1-0.4c0.6-0.6,0.7-1.5,0.1-2.2
	c-1.4-1.5-4.4-3.9-9.1-4.1v-4c0-0.4-0.2-0.8-0.4-1c-0.3-0.3-0.6-0.4-1-0.4c-0.8,0-1.5,0.7-1.5,1.5v4.1c-5.7,0.8-9.7,4.7-9.7,9.9
	c0,5.9,4.3,8.6,5.9,9.5c1,0.5,2.3,1.1,3.8,1.8c1,0.4,2,0.8,2.9,1.2l0,0c2.4,0.9,7.8,3,7.8,8.3c0,4.7-3.4,7.8-7.8,8.5
	c-0.6,0.1-1.1,0.1-1.7,0.1c-0.4,0-0.8,0-1.2-0.1c-3.9-0.4-6.7-2.8-8.3-5c-0.5-0.7-1.4-0.8-2.1-0.3l0,0c-0.7,0.5-0.8,1.4-0.4,2.1
	c1.5,2.2,4.9,5.7,10.8,6v4.4c0,0.8,0.7,1.5,1.5,1.5s1.4-0.7,1.4-1.5v-4.5c6.8-0.8,11.1-5.6,11.1-11.2
	C460.5,576.6,455.5,573.9,454.5,573.4z"/>
<path class="st0" d="M487.4,713l3.8-0.5c2.8-0.3,4.9-2.9,4.5-5.8l0,0c-0.3-2.8-2.9-4.9-5.8-4.5l-5.8,0.7l1.6-6.2
	c0.7-2.8-0.9-5.6-3.7-6.3l0,0c-2.8-0.7-5.6,0.9-6.3,3.7l-1.7,6.4c-7.5-4.8-16.5-7.6-26.1-7.6c-26.9,0-48.7,21.8-48.7,48.7
	s21.8,48.7,48.7,48.7s48.7-21.8,48.7-48.7C496.7,730.9,493.3,721,487.4,713z M482.4,744.5c0,4-3.3,7.3-7.3,7.3h-54.4
	c-4,0-7.3-3.3-7.3-7.3V736c0-4,3.3-7.3,7.3-7.3h54.4c4,0,7.3,3.3,7.3,7.3V744.5z M435.5,740.3c0,4.8-2.3,8.7-5.2,8.7
	c-2.9,0-5.2-3.9-5.2-8.7s2.3-8.7,5.2-8.7S435.5,735.5,435.5,740.3z M470.8,740.3c0,4.8-2.3,8.7-5.2,8.7c-2.9,0-5.2-3.9-5.2-8.7
	s2.3-8.7,5.2-8.7S470.8,735.5,470.8,740.3z"/>
<path class="st0" d="M447.9,861.2c12,0,23.4,4.7,31.9,13.2s13.2,19.8,13.2,31.9s-4.7,23.4-13.2,31.9s-19.8,13.2-31.9,13.2
	s-23.4-4.7-31.9-13.2s-13.2-19.8-13.2-31.9s4.7-23.4,13.2-31.9C424.6,865.9,435.9,861.2,447.9,861.2 M447.9,857.6
	c-26.9,0-48.7,21.8-48.7,48.7S421,955,447.9,955c26.9,0,48.7-21.8,48.7-48.7C496.7,879.4,474.9,857.6,447.9,857.6L447.9,857.6z
	 M487.5,906.3c0-21.8-17.8-39.6-39.6-39.6c-21.8,0-39.6,17.8-39.6,39.6c0,9.1,3.2,18.1,9,25.1c0.6,0.8,1.8,0.9,2.6,0.3
	c0.8-0.6,0.9-1.8,0.3-2.6c-5.3-6.4-8.1-14.5-8.1-22.8c0-19.8,16.1-36,36-36c19.8,0,36,16.1,36,36s-16.1,36-36,36
	c-2.9,0-5.8-0.4-8.7-1.1c-1-0.2-2,0.4-2.2,1.3c-0.2,1,0.4,2,1.3,2.2c3.1,0.8,6.3,1.2,9.5,1.2C469.8,945.9,487.5,928.1,487.5,906.3z
	 M431.9,940.5c0.5-0.9,0.1-2-0.8-2.5c-1.9-1-3.8-2.3-5.5-3.6c-0.8-0.6-1.9-0.5-2.6,0.3c-0.6,0.8-0.5,1.9,0.3,2.6
	c1.9,1.5,4,2.9,6.1,4c0.3,0.1,0.6,0.2,0.9,0.2C430.9,941.5,431.5,941.2,431.9,940.5z M454.5,905.4c-0.6-0.4-2.9-1.3-5.1-2.3
	c-1-0.4-2-0.9-2.9-1.2c-0.1-0.1-0.2-0.1-0.3-0.1c-2.9-1.2-6.1-3.1-6.1-7.7c0-3.9,2.7-6.3,6.4-6.9c0.7-0.1,1.4-0.2,2.1-0.2
	c0.3,0,0.6,0,0.8,0c3.4,0.2,5.4,1.8,6.9,3.3c0.3,0.3,0.7,0.5,1.1,0.5s0.7-0.1,1-0.4c0.6-0.6,0.7-1.5,0.1-2.2
	c-1.4-1.5-4.4-3.9-9.1-4.1v-4c0-0.4-0.2-0.8-0.4-1c-0.3-0.3-0.6-0.4-1-0.4c-0.8,0-1.5,0.7-1.5,1.5v4.1c-5.7,0.8-9.7,4.7-9.7,9.9
	c0,5.9,4.3,8.6,5.9,9.5c1,0.5,2.3,1.1,3.8,1.8c1,0.4,2,0.8,2.9,1.2l0,0c2.4,0.9,7.8,3,7.8,8.3c0,4.7-3.4,7.8-7.8,8.5
	c-0.6,0.1-1.1,0.1-1.7,0.1c-0.4,0-0.8,0-1.2-0.1c-3.9-0.4-6.7-2.8-8.3-5c-0.5-0.7-1.4-0.8-2.1-0.3l0,0c-0.7,0.5-0.8,1.4-0.4,2.1
	c1.5,2.2,4.9,5.7,10.8,6v4.4c0,0.8,0.7,1.5,1.5,1.5s1.4-0.7,1.4-1.5V926c6.8-0.8,11.1-5.6,11.1-11.2
	C460.5,908.6,455.5,905.9,454.5,905.4z"/>
<path class="st0" d="M855.6,49.1l3.8-0.5c2.8-0.3,4.9-2.9,4.5-5.8l0,0c-0.3-2.8-2.9-4.9-5.8-4.5l-5.8,0.7l1.6-6.2
	c0.7-2.8-0.9-5.6-3.7-6.3l0,0c-2.8-0.7-5.6,0.9-6.3,3.7l-1.7,6.4c-7.5-4.8-16.5-7.6-26.1-7.6c-26.9,0-48.7,21.8-48.7,48.7
	s21.8,48.7,48.7,48.7S865,104.7,865,77.8C865,67,861.5,57.1,855.6,49.1z M850.6,80.6c0,4-3.3,7.3-7.3,7.3H789c-4,0-7.3-3.3-7.3-7.3
	v-8.5c0-4,3.3-7.3,7.3-7.3h54.4c4,0,7.3,3.3,7.3,7.3v8.5H850.6z M803.8,76.4c0,4.8-2.3,8.7-5.2,8.7s-5.2-3.9-5.2-8.7
	c0-4.8,2.3-8.7,5.2-8.7C801.4,67.7,803.8,71.6,803.8,76.4z M839,76.4c0,4.8-2.3,8.7-5.2,8.7s-5.2-3.9-5.2-8.7c0-4.8,2.3-8.7,5.2-8.7
	C836.7,67.7,839,71.6,839,76.4z"/>
<path class="st0" d="M1039.7,214.6l3.8-0.5c2.8-0.3,4.9-2.9,4.5-5.8l0,0c-0.3-2.8-2.9-4.9-5.8-4.5l-5.8,0.7l1.6-6.2
	c0.7-2.8-0.9-5.6-3.7-6.3l0,0c-2.8-0.7-5.6,0.9-6.3,3.7l-1.7,6.4c-7.5-4.8-16.5-7.6-26.1-7.6c-26.9,0-48.7,21.8-48.7,48.7
	s21.8,48.7,48.7,48.7s48.7-21.8,48.7-48.7C1049,232.5,1045.6,222.6,1039.7,214.6z M1034.7,246.1c0,4-3.3,7.3-7.3,7.3H973
	c-4,0-7.3-3.3-7.3-7.3v-8.5c0-4,3.3-7.3,7.3-7.3h54.4c4,0,7.3,3.3,7.3,7.3L1034.7,246.1L1034.7,246.1z M987.8,241.8
	c0,4.8-2.3,8.7-5.2,8.7s-5.2-3.9-5.2-8.7s2.3-8.7,5.2-8.7S987.8,237,987.8,241.8z M1023.1,241.8c0,4.8-2.3,8.7-5.2,8.7
	s-5.2-3.9-5.2-8.7s2.3-8.7,5.2-8.7C1020.7,233.1,1023.1,237,1023.1,241.8z"/>
<path class="st0" d="M855.6,381l3.8-0.5c2.8-0.3,4.9-2.9,4.5-5.8l0,0c-0.3-2.8-2.9-4.9-5.8-4.5l-5.8,0.7l1.6-6.2
	c0.7-2.8-0.9-5.6-3.7-6.3l0,0c-2.8-0.7-5.6,0.9-6.3,3.7l-1.7,6.4c-7.5-4.8-16.5-7.6-26.1-7.6c-26.9,0-48.7,21.8-48.7,48.7
	c0,26.9,21.8,48.7,48.7,48.7s48.7-21.8,48.7-48.7C865,399,861.5,389.1,855.6,381z M850.6,412.5c0,4-3.3,7.3-7.3,7.3H789
	c-4,0-7.3-3.3-7.3-7.3V404c0-4,3.3-7.3,7.3-7.3h54.4c4,0,7.3,3.3,7.3,7.3v8.5H850.6z M803.8,408.3c0,4.8-2.3,8.7-5.2,8.7
	s-5.2-3.9-5.2-8.7s2.3-8.7,5.2-8.7C801.4,399.6,803.8,403.5,803.8,408.3z M839,408.3c0,4.8-2.3,8.7-5.2,8.7s-5.2-3.9-5.2-8.7
	s2.3-8.7,5.2-8.7C836.7,399.6,839,403.5,839,408.3z"/>
<path class="st0" d="M816.2,196.8c12,0,23.4,4.7,31.9,13.2s13.2,19.8,13.2,31.9c0,12-4.7,23.4-13.2,31.9S828.3,287,816.2,287
	s-23.4-4.7-31.9-13.2s-13.2-19.8-13.2-31.9c0-12,4.7-23.4,13.2-31.9S804.1,196.8,816.2,196.8 M816.2,193.2
	c-26.9,0-48.7,21.8-48.7,48.7s21.8,48.7,48.7,48.7s48.7-21.8,48.7-48.7S843.1,193.2,816.2,193.2L816.2,193.2z M855.8,241.9
	c0-21.8-17.8-39.6-39.6-39.6s-39.6,17.8-39.6,39.6c0,9.1,3.2,18.1,9,25.1c0.6,0.8,1.8,0.9,2.6,0.3s0.9-1.8,0.3-2.6
	c-5.3-6.4-8.1-14.5-8.1-22.8c0-19.8,16.1-36,36-36s36,16.1,36,36s-16.1,36-36,36c-2.9,0-5.8-0.4-8.7-1.1c-1-0.2-2,0.4-2.2,1.3
	c-0.2,1,0.4,2,1.3,2.2c3.1,0.8,6.3,1.2,9.5,1.2C838,281.5,855.8,263.7,855.8,241.9z M800.1,276.1c0.5-0.9,0.1-2-0.8-2.5
	c-1.9-1-3.8-2.3-5.5-3.6c-0.8-0.6-1.9-0.5-2.6,0.3c-0.6,0.8-0.5,1.9,0.3,2.6c1.9,1.5,4,2.9,6.1,4c0.3,0.1,0.6,0.2,0.9,0.2
	C799.1,277.1,799.8,276.8,800.1,276.1z M822.8,240.9c-0.6-0.4-2.9-1.3-5.1-2.3c-1-0.4-2-0.9-2.9-1.2c-0.1-0.1-0.2-0.1-0.3-0.1
	c-2.9-1.2-6.1-3.1-6.1-7.7c0-3.9,2.7-6.3,6.4-6.9c0.7-0.1,1.4-0.2,2.1-0.2c0.3,0,0.6,0,0.8,0c3.4,0.2,5.4,1.8,6.9,3.3
	c0.3,0.3,0.7,0.5,1.1,0.5c0.4,0,0.7-0.1,1-0.4c0.6-0.6,0.7-1.5,0.1-2.2c-1.4-1.5-4.4-3.9-9.1-4.1v-4c0-0.4-0.2-0.8-0.4-1
	c-0.3-0.3-0.6-0.4-1-0.4c-0.8,0-1.5,0.7-1.5,1.5v4.1c-5.7,0.8-9.7,4.7-9.7,9.9c0,5.9,4.3,8.6,5.9,9.5c1,0.5,2.3,1.1,3.8,1.8
	c1,0.4,2,0.8,2.9,1.2l0,0c2.4,0.9,7.8,3,7.8,8.3c0,4.7-3.4,7.8-7.8,8.5c-0.6,0.1-1.1,0.1-1.7,0.1c-0.4,0-0.8,0-1.2-0.1
	c-3.9-0.4-6.7-2.8-8.3-5c-0.5-0.7-1.4-0.8-2.1-0.3l0,0c-0.7,0.5-0.8,1.4-0.4,2.1c1.5,2.2,4.9,5.7,10.8,6v4.4c0,0.8,0.7,1.5,1.5,1.5
	s1.4-0.7,1.4-1.5v-4.5c6.8-0.8,11.1-5.6,11.1-11.2C828.7,244.2,823.7,241.5,822.8,240.9z"/>
<path class="st0" d="M1000.3,31.3c12,0,23.4,4.7,31.9,13.2c8.5,8.5,13.2,19.8,13.2,31.9s-4.7,23.4-13.2,31.9s-19.8,13.2-31.9,13.2
	s-23.4-4.7-31.9-13.2s-13.2-19.8-13.2-31.9s4.7-23.4,13.2-31.9C976.9,36,988.2,31.3,1000.3,31.3 M1000.3,27.7
	c-26.9,0-48.7,21.8-48.7,48.7s21.8,48.7,48.7,48.7c26.9,0,48.7-21.8,48.7-48.7S1027.2,27.7,1000.3,27.7L1000.3,27.7z M1039.9,76.4
	c0-21.8-17.8-39.6-39.6-39.6s-39.6,17.8-39.6,39.6c0,9.1,3.2,18.1,9,25.1c0.6,0.8,1.8,0.9,2.6,0.3s0.9-1.8,0.3-2.6
	c-5.3-6.4-8.1-14.5-8.1-22.8c0-19.8,16.1-36,36-36s36,16.1,36,36s-16.1,36-36,36c-2.9,0-5.8-0.4-8.7-1.1c-1-0.2-2,0.4-2.2,1.3
	c-0.2,1,0.4,2,1.3,2.2c3.1,0.8,6.3,1.2,9.5,1.2C1022.1,116,1039.9,98.2,1039.9,76.4z M984.2,110.7c0.5-0.9,0.1-2-0.8-2.5
	c-1.9-1-3.8-2.3-5.5-3.6c-0.8-0.6-1.9-0.5-2.6,0.3c-0.6,0.8-0.5,1.9,0.3,2.6c1.9,1.5,4,2.9,6.1,4c0.3,0.1,0.6,0.2,0.9,0.2
	C983.2,111.6,983.9,111.3,984.2,110.7z M1006.9,75.5c-0.6-0.4-2.9-1.3-5.1-2.3c-1-0.4-2-0.9-2.9-1.2c-0.1-0.1-0.2-0.1-0.3-0.1
	c-2.9-1.2-6.1-3.1-6.1-7.7c0-3.9,2.7-6.3,6.4-6.9c0.7-0.1,1.4-0.2,2.1-0.2c0.3,0,0.6,0,0.8,0c3.4,0.2,5.4,1.8,6.9,3.3
	c0.3,0.3,0.7,0.5,1.1,0.5c0.4,0,0.7-0.1,1-0.4c0.6-0.6,0.7-1.5,0.1-2.2c-1.4-1.5-4.4-3.9-9.1-4.1v-4c0-0.4-0.2-0.8-0.4-1
	c-0.3-0.3-0.6-0.4-1-0.4c-0.8,0-1.5,0.7-1.5,1.5v4.1c-5.7,0.8-9.7,4.7-9.7,9.9c0,5.9,4.3,8.6,5.9,9.5c1,0.5,2.3,1.1,3.8,1.8
	c1,0.4,2,0.8,2.9,1.2l0,0c2.4,0.9,7.8,3,7.8,8.3c0,4.7-3.4,7.8-7.8,8.5c-0.6,0.1-1.1,0.1-1.7,0.1c-0.4,0-0.8,0-1.2-0.1
	c-3.9-0.4-6.7-2.8-8.3-5c-0.5-0.7-1.4-0.8-2.1-0.3l0,0c-0.7,0.5-0.8,1.4-0.4,2.1c1.5,2.2,4.9,5.7,10.8,6v4.4c0,0.8,0.7,1.5,1.5,1.5
	s1.4-0.7,1.4-1.5v-4.5c6.8-0.8,11.1-5.6,11.1-11.2C1012.8,78.7,1007.8,76,1006.9,75.5z"/>
<path class="st0" d="M1039.7,545.4l3.8-0.5c2.8-0.3,4.9-2.9,4.5-5.8l0,0c-0.3-2.8-2.9-4.9-5.8-4.5l-5.8,0.7l1.6-6.2
	c0.7-2.8-0.9-5.6-3.7-6.3l0,0c-2.8-0.7-5.6,0.9-6.3,3.7l-1.7,6.4c-7.5-4.8-16.5-7.6-26.1-7.6c-26.9,0-48.7,21.8-48.7,48.7
	s21.8,48.7,48.7,48.7s48.7-21.8,48.7-48.7C1049,563.4,1045.6,553.5,1039.7,545.4z M1034.7,576.9c0,4-3.3,7.3-7.3,7.3H973
	c-4,0-7.3-3.3-7.3-7.3v-8.5c0-4,3.3-7.3,7.3-7.3h54.4c4,0,7.3,3.3,7.3,7.3L1034.7,576.9L1034.7,576.9z M987.8,572.7
	c0,4.8-2.3,8.7-5.2,8.7s-5.2-3.9-5.2-8.7s2.3-8.7,5.2-8.7S987.8,567.9,987.8,572.7z M1023.1,572.7c0,4.8-2.3,8.7-5.2,8.7
	s-5.2-3.9-5.2-8.7s2.3-8.7,5.2-8.7C1020.7,564,1023.1,567.9,1023.1,572.7z"/>
<path class="st0" d="M1000.3,362.2c12,0,23.4,4.7,31.9,13.2c8.5,8.5,13.2,19.8,13.2,31.9s-4.7,23.4-13.2,31.9s-19.8,13.2-31.9,13.2
	s-23.4-4.7-31.9-13.2s-13.2-19.8-13.2-31.9s4.7-23.4,13.2-31.9C976.9,366.9,988.2,362.2,1000.3,362.2 M1000.3,358.5
	c-26.9,0-48.7,21.8-48.7,48.7c0,26.9,21.8,48.7,48.7,48.7c26.9,0,48.7-21.8,48.7-48.7S1027.2,358.5,1000.3,358.5L1000.3,358.5z
	 M1039.9,407.3c0-21.8-17.8-39.6-39.6-39.6s-39.6,17.8-39.6,39.6c0,9.1,3.2,18.1,9,25.1c0.6,0.8,1.8,0.9,2.6,0.3s0.9-1.8,0.3-2.6
	c-5.3-6.4-8.1-14.5-8.1-22.8c0-19.8,16.1-36,36-36s36,16.1,36,36c0,19.8-16.1,36-36,36c-2.9,0-5.8-0.4-8.7-1.1c-1-0.2-2,0.4-2.2,1.3
	c-0.2,1,0.4,2,1.3,2.2c3.1,0.8,6.3,1.2,9.5,1.2C1022.1,446.9,1039.9,429.1,1039.9,407.3z M984.2,441.5c0.5-0.9,0.1-2-0.8-2.5
	c-1.9-1-3.8-2.3-5.5-3.6c-0.8-0.6-1.9-0.5-2.6,0.3c-0.6,0.8-0.5,1.9,0.3,2.6c1.9,1.5,4,2.9,6.1,4c0.3,0.1,0.6,0.2,0.9,0.2
	C983.2,442.5,983.9,442.1,984.2,441.5z M1006.9,406.3c-0.6-0.4-2.9-1.3-5.1-2.3c-1-0.4-2-0.9-2.9-1.2c-0.1-0.1-0.2-0.1-0.3-0.1
	c-2.9-1.2-6.1-3.1-6.1-7.7c0-3.9,2.7-6.3,6.4-6.9c0.7-0.1,1.4-0.2,2.1-0.2c0.3,0,0.6,0,0.8,0c3.4,0.2,5.4,1.8,6.9,3.3
	c0.3,0.3,0.7,0.5,1.1,0.5c0.4,0,0.7-0.1,1-0.4c0.6-0.6,0.7-1.5,0.1-2.2c-1.4-1.5-4.4-3.9-9.1-4.1v-4c0-0.4-0.2-0.8-0.4-1
	c-0.3-0.3-0.6-0.4-1-0.4c-0.8,0-1.5,0.7-1.5,1.5v4.1c-5.7,0.8-9.7,4.7-9.7,9.9c0,5.9,4.3,8.6,5.9,9.5c1,0.5,2.3,1.1,3.8,1.8
	c1,0.4,2,0.8,2.9,1.2l0,0c2.4,0.9,7.8,3,7.8,8.3c0,4.7-3.4,7.8-7.8,8.5c-0.6,0.1-1.1,0.1-1.7,0.1c-0.4,0-0.8,0-1.2-0.1
	c-3.9-0.4-6.7-2.8-8.3-5c-0.5-0.7-1.4-0.8-2.1-0.3l0,0c-0.7,0.5-0.8,1.4-0.4,2.1c1.5,2.2,4.9,5.7,10.8,6v4.4c0,0.8,0.7,1.5,1.5,1.5
	s1.4-0.7,1.4-1.5V427c6.8-0.8,11.1-5.6,11.1-11.2C1012.8,409.6,1007.8,406.9,1006.9,406.3z"/>
<path class="st0" d="M1039.7,876.4l3.8-0.5c2.8-0.3,4.9-2.9,4.5-5.8l0,0c-0.3-2.8-2.9-4.9-5.8-4.5l-5.8,0.7l1.6-6.2
	c0.7-2.8-0.9-5.6-3.7-6.3l0,0c-2.8-0.7-5.6,0.9-6.3,3.7l-1.7,6.4c-7.5-4.8-16.5-7.6-26.1-7.6c-26.9,0-48.7,21.8-48.7,48.7
	s21.8,48.7,48.7,48.7s48.7-21.8,48.7-48.7C1049,894.3,1045.6,884.4,1039.7,876.4z M1034.7,907.9c0,4-3.3,7.3-7.3,7.3H973
	c-4,0-7.3-3.3-7.3-7.3v-8.5c0-4,3.3-7.3,7.3-7.3h54.4c4,0,7.3,3.3,7.3,7.3L1034.7,907.9L1034.7,907.9z M987.8,903.7
	c0,4.8-2.3,8.7-5.2,8.7s-5.2-3.9-5.2-8.7s2.3-8.7,5.2-8.7S987.8,898.9,987.8,903.7z M1023.1,903.7c0,4.8-2.3,8.7-5.2,8.7
	s-5.2-3.9-5.2-8.7s2.3-8.7,5.2-8.7C1020.7,895,1023.1,898.9,1023.1,903.7z"/>
<path class="st0" d="M1000.3,693.1c12,0,23.4,4.7,31.9,13.2c8.5,8.5,13.2,19.8,13.2,31.9s-4.7,23.4-13.2,31.9s-19.8,13.2-31.9,13.2
	s-23.4-4.7-31.9-13.2s-13.2-19.8-13.2-31.9s4.7-23.4,13.2-31.9C976.9,697.8,988.2,693.1,1000.3,693.1 M1000.3,689.5
	c-26.9,0-48.7,21.8-48.7,48.7s21.8,48.7,48.7,48.7c26.9,0,48.7-21.8,48.7-48.7S1027.2,689.5,1000.3,689.5L1000.3,689.5z
	 M1039.9,738.2c0-21.8-17.8-39.6-39.6-39.6s-39.6,17.8-39.6,39.6c0,9.1,3.2,18.1,9,25.1c0.6,0.8,1.8,0.9,2.6,0.3
	c0.8-0.6,0.9-1.8,0.3-2.6c-5.3-6.4-8.1-14.5-8.1-22.8c0-19.8,16.1-36,36-36s36,16.1,36,36s-16.1,36-36,36c-2.9,0-5.8-0.4-8.7-1.1
	c-1-0.2-2,0.4-2.2,1.3c-0.2,1,0.4,2,1.3,2.2c3.1,0.8,6.3,1.2,9.5,1.2C1022.1,777.8,1039.9,760.1,1039.9,738.2z M984.2,772.5
	c0.5-0.9,0.1-2-0.8-2.5c-1.9-1-3.8-2.3-5.5-3.6c-0.8-0.6-1.9-0.5-2.6,0.3c-0.6,0.8-0.5,1.9,0.3,2.6c1.9,1.5,4,2.9,6.1,4
	c0.3,0.1,0.6,0.2,0.9,0.2C983.2,773.4,983.9,773.1,984.2,772.5z M1006.9,737.3c-0.6-0.4-2.9-1.3-5.1-2.3c-1-0.4-2-0.9-2.9-1.2
	c-0.1-0.1-0.2-0.1-0.3-0.1c-2.9-1.2-6.1-3.1-6.1-7.7c0-3.9,2.7-6.3,6.4-6.9c0.7-0.1,1.4-0.2,2.1-0.2c0.3,0,0.6,0,0.8,0
	c3.4,0.2,5.4,1.8,6.9,3.3c0.3,0.3,0.7,0.5,1.1,0.5c0.4,0,0.7-0.1,1-0.4c0.6-0.6,0.7-1.5,0.1-2.2c-1.4-1.5-4.4-3.9-9.1-4.1v-4
	c0-0.4-0.2-0.8-0.4-1c-0.3-0.3-0.6-0.4-1-0.4c-0.8,0-1.5,0.7-1.5,1.5v4.1c-5.7,0.8-9.7,4.7-9.7,9.9c0,5.9,4.3,8.6,5.9,9.5
	c1,0.5,2.3,1.1,3.8,1.8c1,0.4,2,0.8,2.9,1.2l0,0c2.4,0.9,7.8,3,7.8,8.3c0,4.7-3.4,7.8-7.8,8.5c-0.6,0.1-1.1,0.1-1.7,0.1
	c-0.4,0-0.8,0-1.2-0.1c-3.9-0.4-6.7-2.8-8.3-5c-0.5-0.7-1.4-0.8-2.1-0.3l0,0c-0.7,0.5-0.8,1.4-0.4,2.1c1.5,2.2,4.9,5.7,10.8,6v4.4
	c0,0.8,0.7,1.5,1.5,1.5s1.4-0.7,1.4-1.5V758c6.8-0.8,11.1-5.6,11.1-11.2C1012.8,740.5,1007.8,737.8,1006.9,737.3z"/>
<path class="st0" d="M816.2,529.2c12,0,23.4,4.7,31.9,13.2s13.2,19.8,13.2,31.9s-4.7,23.4-13.2,31.9s-19.8,13.2-31.9,13.2
	s-23.4-4.7-31.9-13.2s-13.2-19.8-13.2-31.9s4.7-23.4,13.2-31.9S804.1,529.2,816.2,529.2 M816.2,525.6c-26.9,0-48.7,21.8-48.7,48.7
	s21.8,48.7,48.7,48.7s48.7-21.8,48.7-48.7C864.9,547.4,843.1,525.6,816.2,525.6L816.2,525.6z M855.8,574.3
	c0-21.8-17.8-39.6-39.6-39.6s-39.6,17.8-39.6,39.6c0,9.1,3.2,18.1,9,25.1c0.6,0.8,1.8,0.9,2.6,0.3c0.8-0.6,0.9-1.8,0.3-2.6
	c-5.3-6.4-8.1-14.5-8.1-22.8c0-19.8,16.1-36,36-36s36,16.1,36,36s-16.1,36-36,36c-2.9,0-5.8-0.4-8.7-1.1c-1-0.2-2,0.4-2.2,1.3
	c-0.2,1,0.4,2,1.3,2.2c3.1,0.8,6.3,1.2,9.5,1.2C838,613.9,855.8,596.2,855.8,574.3z M800.1,608.6c0.5-0.9,0.1-2-0.8-2.5
	c-1.9-1-3.8-2.3-5.5-3.6c-0.8-0.6-1.9-0.5-2.6,0.3c-0.6,0.8-0.5,1.9,0.3,2.6c1.9,1.5,4,2.9,6.1,4c0.3,0.1,0.6,0.2,0.9,0.2
	C799.1,609.6,799.8,609.2,800.1,608.6z M822.8,573.4c-0.6-0.4-2.9-1.3-5.1-2.3c-1-0.4-2-0.9-2.9-1.2c-0.1-0.1-0.2-0.1-0.3-0.1
	c-2.9-1.2-6.1-3.1-6.1-7.7c0-3.9,2.7-6.3,6.4-6.9c0.7-0.1,1.4-0.2,2.1-0.2c0.3,0,0.6,0,0.8,0c3.4,0.2,5.4,1.8,6.9,3.3
	c0.3,0.3,0.7,0.5,1.1,0.5c0.4,0,0.7-0.1,1-0.4c0.6-0.6,0.7-1.5,0.1-2.2c-1.4-1.5-4.4-3.9-9.1-4.1v-4c0-0.4-0.2-0.8-0.4-1
	c-0.3-0.3-0.6-0.4-1-0.4c-0.8,0-1.5,0.7-1.5,1.5v4.1c-5.7,0.8-9.7,4.7-9.7,9.9c0,5.9,4.3,8.6,5.9,9.5c1,0.5,2.3,1.1,3.8,1.8
	c1,0.4,2,0.8,2.9,1.2l0,0c2.4,0.9,7.8,3,7.8,8.3c0,4.7-3.4,7.8-7.8,8.5c-0.6,0.1-1.1,0.1-1.7,0.1c-0.4,0-0.8,0-1.2-0.1
	c-3.9-0.4-6.7-2.8-8.3-5c-0.5-0.7-1.4-0.8-2.1-0.3l0,0c-0.7,0.5-0.8,1.4-0.4,2.1c1.5,2.2,4.9,5.7,10.8,6v4.4c0,0.8,0.7,1.5,1.5,1.5
	s1.4-0.7,1.4-1.5v-4.5c6.8-0.8,11.1-5.6,11.1-11.2C828.7,576.6,823.7,573.9,822.8,573.4z"/>
<path class="st0" d="M855.6,713l3.8-0.5c2.8-0.3,4.9-2.9,4.5-5.8l0,0c-0.3-2.8-2.9-4.9-5.8-4.5l-5.8,0.7l1.6-6.2
	c0.7-2.8-0.9-5.6-3.7-6.3l0,0c-2.8-0.7-5.6,0.9-6.3,3.7l-1.7,6.4c-7.5-4.8-16.5-7.6-26.1-7.6c-26.9,0-48.7,21.8-48.7,48.7
	s21.8,48.7,48.7,48.7s48.7-21.8,48.7-48.7C865,730.9,861.5,721,855.6,713z M850.6,744.5c0,4-3.3,7.3-7.3,7.3H789
	c-4,0-7.3-3.3-7.3-7.3V736c0-4,3.3-7.3,7.3-7.3h54.4c4,0,7.3,3.3,7.3,7.3v8.5H850.6z M803.8,740.3c0,4.8-2.3,8.7-5.2,8.7
	s-5.2-3.9-5.2-8.7s2.3-8.7,5.2-8.7C801.4,731.6,803.8,735.5,803.8,740.3z M839,740.3c0,4.8-2.3,8.7-5.2,8.7s-5.2-3.9-5.2-8.7
	s2.3-8.7,5.2-8.7S839,735.5,839,740.3z"/>
<path class="st0" d="M816.2,861.2c12,0,23.4,4.7,31.9,13.2s13.2,19.8,13.2,31.9s-4.7,23.4-13.2,31.9s-19.8,13.2-31.9,13.2
	s-23.4-4.7-31.9-13.2s-13.2-19.8-13.2-31.9s4.7-23.4,13.2-31.9S804.1,861.2,816.2,861.2 M816.2,857.6c-26.9,0-48.7,21.8-48.7,48.7
	s21.8,48.7,48.7,48.7s48.7-21.8,48.7-48.7C864.9,879.4,843.1,857.6,816.2,857.6L816.2,857.6z M855.8,906.3
	c0-21.8-17.8-39.6-39.6-39.6s-39.6,17.8-39.6,39.6c0,9.1,3.2,18.1,9,25.1c0.6,0.8,1.8,0.9,2.6,0.3c0.8-0.6,0.9-1.8,0.3-2.6
	c-5.3-6.4-8.1-14.5-8.1-22.8c0-19.8,16.1-36,36-36s36,16.1,36,36s-16.1,36-36,36c-2.9,0-5.8-0.4-8.7-1.1c-1-0.2-2,0.4-2.2,1.3
	c-0.2,1,0.4,2,1.3,2.2c3.1,0.8,6.3,1.2,9.5,1.2C838,945.9,855.8,928.1,855.8,906.3z M800.1,940.5c0.5-0.9,0.1-2-0.8-2.5
	c-1.9-1-3.8-2.3-5.5-3.6c-0.8-0.6-1.9-0.5-2.6,0.3c-0.6,0.8-0.5,1.9,0.3,2.6c1.9,1.5,4,2.9,6.1,4c0.3,0.1,0.6,0.2,0.9,0.2
	C799.1,941.5,799.8,941.2,800.1,940.5z M822.8,905.4c-0.6-0.4-2.9-1.3-5.1-2.3c-1-0.4-2-0.9-2.9-1.2c-0.1-0.1-0.2-0.1-0.3-0.1
	c-2.9-1.2-6.1-3.1-6.1-7.7c0-3.9,2.7-6.3,6.4-6.9c0.7-0.1,1.4-0.2,2.1-0.2c0.3,0,0.6,0,0.8,0c3.4,0.2,5.4,1.8,6.9,3.3
	c0.3,0.3,0.7,0.5,1.1,0.5c0.4,0,0.7-0.1,1-0.4c0.6-0.6,0.7-1.5,0.1-2.2c-1.4-1.5-4.4-3.9-9.1-4.1v-4c0-0.4-0.2-0.8-0.4-1
	c-0.3-0.3-0.6-0.4-1-0.4c-0.8,0-1.5,0.7-1.5,1.5v4.1c-5.7,0.8-9.7,4.7-9.7,9.9c0,5.9,4.3,8.6,5.9,9.5c1,0.5,2.3,1.1,3.8,1.8
	c1,0.4,2,0.8,2.9,1.2l0,0c2.4,0.9,7.8,3,7.8,8.3c0,4.7-3.4,7.8-7.8,8.5c-0.6,0.1-1.1,0.1-1.7,0.1c-0.4,0-0.8,0-1.2-0.1
	c-3.9-0.4-6.7-2.8-8.3-5c-0.5-0.7-1.4-0.8-2.1-0.3l0,0c-0.7,0.5-0.8,1.4-0.4,2.1c1.5,2.2,4.9,5.7,10.8,6v4.4c0,0.8,0.7,1.5,1.5,1.5
	s1.4-0.7,1.4-1.5V926c6.8-0.8,11.1-5.6,11.1-11.2C828.7,908.6,823.7,905.9,822.8,905.4z"/>
</svg>
